<svg xmlns="http://www.w3.org/2000/svg" width="24" height="24" viewBox="0 0 24 24">
  <g id="Group_50665" data-name="Group 50665" transform="translate(-1070 -1245)">
    <g id="Group_47533" data-name="Group 47533" transform="translate(1070 1245)">
      <rect id="Rectangle_19734" data-name="Rectangle 19734" width="24" height="24" transform="translate(0)" fill="none"/>
      <path id="Path_35113" data-name="Path 35113" d="M20.839,9.525l-1-1a1.02,1.02,0,0,0-1.211-.138A2.209,2.209,0,0,1,15.611,5.37a1.02,1.02,0,0,0-.138-1.211l-1-1a1.552,1.552,0,0,0-2.192.071L3.232,12.283a1.552,1.552,0,0,0-.071,2.192l1,1a1.02,1.02,0,0,0,1.211.138A2.209,2.209,0,0,1,8.389,18.63a1.02,1.02,0,0,0,.138,1.211l1,1a1.552,1.552,0,0,0,2.192-.071l9.051-9.051A1.552,1.552,0,0,0,20.839,9.525Z" fill="none" stroke="#464646" stroke-miterlimit="10" stroke-width="2"/>
    </g>
  </g>
</svg>